<svg xmlns="http://www.w3.org/2000/svg" xmlns:xlink="http://www.w3.org/1999/xlink" width="24" height="15" version="1.1" viewBox="0 0 24 15"><title>2. Icons/POLY</title><desc>Created with Sketch.</desc><defs><polygon id="path-1" points="24 6.447 23.951 5.631 23.714 6.311 22.377 7.492 20.845 7.731 20.387 7.285 21.724 5.413 23.105 5 21.616 5.033 19.453 6.616 17.426 6.469 19.459 7.873 20.462 8.585 17.409 6.42 14.573 5 14.573 5 12.89 5.337 7.642 9.744 5.118 10.566 4.077 11.638 2.211 11.659 1.294 13.39 0 13.765 1.224 13.939 2.362 12.389 4.115 12.758 4.088 14.412 3.209 16.801 2.707 19.01 2.168 19.891 3.538 19.587 3.382 18.683 4.541 16.257 6.79 15.348 7.658 13.896 9.125 12.813 12.032 13.248 14.972 11.948 14.47 13.999 13.165 14.119 12.793 15.811 13.915 15.054 15.759 14.244 17.21 11.959 17.296 10.871 18.078 11.687 20.338 13.112 21.616 12.503 21.541 9.472 21.174 8.303 22.851 7.878"/></defs><g id="top-bar-menu" fill="none" fill-rule="evenodd" stroke="none" stroke-width="1" transform="translate(-1239.000000, -25.000000)"><g id="2.-Icons/POLY"><g transform="translate(1239.000000, 20.000000)"><mask id="mask-2" fill="#fff"><use xlink:href="#path-1"/></mask><use id="Shape" fill="#313A62" fill-rule="nonzero" xlink:href="#path-1"/><g id="1.-Colors/Light-blue" fill="#81D4FA" fill-rule="evenodd" mask="url(#mask-2)"><rect id="Gray-85" width="24" height="24" x="0" y="0"/></g></g></g></g></svg>